<?xml version="1.0" standalone="no"?>
<!DOCTYPE svg PUBLIC "-//W3C//DTD SVG 20010904//EN"
 "http://www.w3.org/TR/2001/REC-SVG-20010904/DTD/svg10.dtd">
<svg version="1.0" xmlns="http://www.w3.org/2000/svg"
 width="1550.000000pt" height="1346.000000pt" viewBox="0 0 1550.000000 1346.000000"
 preserveAspectRatio="xMidYMid meet">

<g transform="translate(0.000000,1346.000000) scale(0.100000,-0.100000)"
fill="#000000" stroke="none">
<path d="M2795 13414 c-27 -2 -122 -8 -210 -14 -344 -23 -617 -63 -800 -116
-124 -36 -548 -185 -560 -197 -13 -12 37 -7 265 27 96 14 243 33 325 42 198
21 744 31 886 15 217 -25 221 -33 22 -50 -189 -16 -270 -28 -364 -52 l-76 -20
-168 26 c-212 33 -258 34 -296 6 -26 -19 -58 -24 -262 -41 -339 -29 -697 -82
-731 -109 -6 -5 -40 -16 -75 -24 -66 -17 -78 -23 -68 -33 3 -3 42 4 86 15 44
12 104 21 133 21 29 0 170 11 313 25 143 14 325 27 405 30 l145 4 -200 -29
c-110 -16 -308 -45 -440 -65 -132 -19 -271 -38 -310 -42 -38 -3 -77 -10 -85
-15 -26 -16 193 0 375 27 376 56 446 65 595 75 86 6 181 7 213 3 l58 -8 -178
-54 -178 -55 -305 -12 c-297 -12 -720 -39 -844 -52 -44 -5 -61 -11 -61 -22 0
-16 141 -33 498 -61 102 -7 162 -16 153 -21 -16 -9 -830 -12 -929 -3 -95 8
-60 -1 149 -39 152 -28 199 -40 229 -60 21 -14 32 -26 24 -26 -9 0 -10 -3 -2
-11 8 -8 22 -8 49 0 60 17 156 13 304 -11 110 -19 128 -24 95 -28 -66 -8 -14
-21 79 -19 45 0 108 -4 141 -10 48 -9 72 -8 115 3 50 13 57 13 74 -2 28 -26
139 -20 281 16 66 17 122 29 124 27 2 -3 -17 -10 -43 -17 -25 -7 -46 -15 -46
-19 0 -4 14 -12 32 -18 20 -7 28 -15 22 -21 -12 -12 -108 -37 -179 -45 -34 -5
-59 -13 -62 -22 -3 -7 -4 -16 -1 -18 2 -2 64 10 138 26 142 32 247 36 272 10
28 -28 -63 -62 -293 -110 -104 -22 -133 -31 -131 -43 2 -11 -20 -20 -85 -34
l-88 -20 107 -17 c204 -32 351 -40 673 -33 281 5 321 4 424 -14 63 -11 117
-23 120 -28 3 -5 134 -12 291 -15 272 -5 288 -7 350 -30 52 -20 60 -26 40 -29
-14 -2 -54 0 -90 4 -36 5 -141 3 -235 -2 -93 -5 -266 -10 -384 -10 -118 0
-212 -2 -210 -5 3 -2 72 -12 155 -20 82 -9 192 -22 244 -30 52 -8 121 -17 153
-20 31 -4 57 -10 57 -14 0 -4 -24 -19 -52 -33 -48 -23 -68 -27 -203 -32 -152
-5 -305 8 -287 26 5 5 37 14 72 22 52 10 59 14 40 19 -37 10 -261 7 -230 -3
14 -4 41 -15 60 -24 44 -19 26 -20 -110 -1 -58 8 -136 14 -175 13 l-70 -1 70
-9 c39 -6 142 -20 230 -32 131 -18 160 -24 157 -37 -3 -21 27 -47 123 -107
l81 -50 69 14 c102 20 405 37 421 23 19 -16 89 -2 294 59 176 52 191 55 320
59 l135 4 -80 -33 c-65 -27 -80 -37 -78 -53 2 -18 -3 -20 -37 -17 -48 5 -164
-29 -211 -61 -27 -18 -55 -25 -116 -31 -45 -3 -132 -15 -194 -27 -62 -11 -122
-18 -133 -16 -23 4 -32 -2 79 49 l50 22 -38 4 c-21 2 -69 -1 -107 -7 -38 -6
-99 -11 -137 -11 -97 0 -229 -25 -260 -50 -42 -33 -119 -50 -288 -65 -180 -15
-320 -49 -291 -70 22 -17 20 -23 -16 -45 -20 -12 -41 -17 -59 -13 -16 3 -44 2
-64 -1 l-35 -7 15 -29 c20 -39 19 -49 -7 -60 -16 -6 18 -9 104 -9 127 -1 127
-1 250 45 68 25 197 75 287 111 l164 65 87 -11 c66 -9 143 -10 320 -1 214 10
279 9 219 -4 -51 -10 -158 -27 -244 -37 -107 -12 -413 -89 -449 -112 -29 -19
-25 -45 8 -52 11 -3 91 1 176 8 155 14 185 13 174 -4 -8 -14 4 -11 34 8 27 17
27 17 10 -3 -10 -11 -18 -25 -18 -30 0 -6 -13 -31 -30 -57 l-30 -48 -137 6
c-106 4 -132 3 -113 -6 14 -6 61 -13 105 -16 98 -6 112 -10 97 -25 -12 -12
-499 -14 -579 -2 -32 5 -65 -1 -140 -26 -101 -33 -130 -50 -119 -69 12 -19 68
-12 172 19 167 50 339 65 339 30 0 -8 -9 -16 -20 -18 -11 -2 -29 -12 -40 -22
-11 -9 -28 -22 -39 -27 -14 -8 -4 -11 48 -17 56 -6 72 -3 107 15 48 24 119 50
119 44 0 -3 -18 -17 -41 -32 -29 -19 -36 -29 -27 -34 19 -11 195 -14 244 -5
28 6 44 5 49 -3 11 -19 -12 -38 -76 -63 -32 -13 -59 -26 -59 -30 0 -4 -7 -5
-15 -2 -8 4 -15 1 -15 -5 0 -6 -7 -8 -16 -4 -10 4 -17 -1 -21 -16 -6 -22 -19
-28 -25 -10 -6 17 -95 -26 -95 -46 0 -15 14 -16 128 -13 96 2 125 0 118 -9 -6
-6 -9 -24 -7 -40 2 -23 -1 -29 -19 -31 -13 -2 -23 -6 -23 -9 0 -3 20 -30 45
-59 25 -28 45 -61 45 -72 0 -10 -16 -36 -36 -56 -20 -20 -34 -40 -31 -43 4 -3
26 6 51 21 24 14 50 26 56 26 18 0 59 -50 53 -66 -3 -9 2 -14 15 -14 11 0 25
-7 32 -15 19 -23 -5 -45 -49 -46 l-36 -2 34 -6 34 -6 -34 -30 c-19 -16 -46
-38 -59 -48 l-25 -17 33 6 c18 3 53 17 77 31 25 13 45 23 45 20 0 -3 -30 -28
-67 -57 -38 -29 -61 -51 -53 -48 8 4 119 47 247 97 213 84 238 91 309 94 84 2
96 -6 67 -42 -22 -26 -248 -85 -288 -75 -32 8 -32 -1 3 -31 18 -16 39 -24 64
-25 44 0 57 -14 28 -32 -22 -14 -26 -28 -8 -28 6 0 48 19 92 41 59 31 92 42
129 43 61 1 71 -16 25 -44 l-33 -20 31 0 c47 0 437 40 443 45 2 3 -9 5 -25 6
-16 0 -38 4 -49 9 -18 7 -18 9 10 20 43 17 180 26 189 12 4 -7 -13 -24 -44
-43 -47 -29 -57 -49 -24 -49 34 0 9 -18 -42 -29 -31 -7 -79 -21 -107 -31 l-52
-19 195 -1 c121 -1 187 -5 175 -10 -13 -6 7 -7 55 -4 l75 4 -80 -19 c-44 -11
-93 -24 -108 -30 -36 -14 -37 -14 -31 3 9 22 -17 31 -32 11 -7 -10 -11 -22 -8
-26 3 -5 -11 -15 -30 -23 -33 -14 -56 -41 -56 -66 0 -6 11 -21 25 -34 l25 -23
-67 -23 c-65 -21 -175 -72 -273 -126 -25 -13 -62 -27 -82 -31 -37 -5 -54 -23
-23 -23 8 0 15 -4 15 -8 0 -15 -49 -32 -92 -32 -37 0 -40 -1 -24 -13 17 -13
12 -18 -55 -60 -57 -36 -70 -47 -56 -53 30 -11 79 2 142 39 76 45 157 71 191
63 l27 -7 -22 -23 c-33 -35 -25 -38 28 -11 40 20 50 22 54 10 3 -7 -3 -25 -15
-40 -27 -34 -20 -39 27 -19 30 12 43 13 60 4 18 -10 30 -8 64 10 24 12 52 20
63 18 20 -3 20 -3 -2 -30 l-21 -28 30 0 c17 0 54 9 83 20 46 17 54 18 68 5 27
-24 64 -18 145 25 79 42 105 51 67 24 -25 -17 -29 -34 -8 -34 22 0 30 -20 15
-34 -8 -7 -34 -21 -59 -31 -54 -23 -64 -30 -56 -43 4 -7 39 5 90 29 46 21 94
39 106 39 30 0 60 -18 60 -36 0 -11 5 -14 17 -10 20 8 438 91 507 102 28 4 74
18 103 31 44 20 59 23 82 15 23 -8 76 -2 233 25 219 38 282 39 318 3 18 -18
21 -18 100 16 151 63 439 139 458 120 3 -3 -16 -14 -42 -25 -25 -11 -46 -24
-46 -29 0 -11 -98 -40 -305 -91 -88 -21 -176 -48 -195 -59 -19 -11 -88 -36
-153 -56 -99 -30 -187 -73 -187 -93 0 -2 26 -1 58 2 78 8 518 54 567 59 37 4
36 3 -15 -14 -67 -22 -371 -94 -654 -155 l-210 -45 -218 -120 c-120 -66 -233
-130 -251 -141 -28 -18 -29 -20 -7 -15 179 43 628 121 638 111 2 -2 -34 -28
-80 -58 -85 -56 -126 -93 -115 -103 3 -3 25 -8 49 -12 l43 -5 -50 -24 c-47
-21 -48 -23 -20 -23 29 -1 28 -2 -42 -68 l-71 -67 79 9 c53 6 79 14 79 22 0
21 35 34 89 34 28 0 51 5 51 10 0 14 67 13 75 -1 4 -6 -2 -17 -14 -25 -13 -9
-21 -26 -21 -43 0 -21 -17 -44 -72 -98 -40 -38 -102 -91 -138 -117 -36 -26
-67 -50 -69 -52 -2 -2 2 -11 9 -19 16 -19 -3 -41 -110 -128 -100 -81 -96 -77
-78 -77 9 0 47 21 85 47 37 25 87 55 110 65 23 10 46 26 51 34 6 11 20 14 48
12 l39 -3 -27 -14 c-37 -19 -35 -31 3 -31 17 0 28 -4 24 -10 -3 -5 -1 -18 5
-29 10 -19 14 -18 116 27 96 41 107 44 116 29 6 -12 16 -15 33 -11 39 10 44
-36 11 -86 -14 -22 -30 -40 -34 -40 -4 -1 -29 -20 -55 -44 l-48 -43 19 -32
c12 -19 23 -28 26 -22 4 6 11 11 17 11 24 0 2 -24 -73 -78 -54 -38 -82 -65
-80 -75 2 -10 -14 -26 -40 -43 -60 -37 -108 -84 -108 -106 0 -22 42 -40 67
-31 10 4 42 22 71 41 38 25 56 32 64 24 7 -7 1 -15 -23 -27 -54 -27 -71 -46
-58 -62 6 -7 18 -13 25 -13 18 0 18 -9 -3 -32 -18 -20 -4 -25 15 -6 24 24 9
-10 -57 -127 -54 -96 -72 -120 -89 -119 -11 0 -19 -3 -16 -8 3 -4 12 -8 20 -8
12 0 9 -12 -13 -52 l-28 -53 -85 3 c-231 8 -482 34 -620 63 -157 33 -360 86
-454 119 -68 23 -66 23 -66 12 0 -5 28 -17 63 -28 57 -17 60 -19 32 -24 -26
-5 -19 -9 50 -28 44 -12 166 -40 270 -62 198 -42 241 -54 165 -44 -25 4 -42 4
-39 0 10 -10 305 -53 459 -67 80 -7 153 -17 162 -24 15 -10 14 -15 -14 -63
-25 -44 -34 -52 -61 -53 -31 -2 -31 -2 -4 -6 15 -2 27 -6 27 -8 0 -2 -12 -25
-27 -50 -21 -33 -34 -45 -53 -46 -18 -1 -20 -3 -7 -6 21 -5 17 -21 -13 -62
-11 -14 -54 -72 -95 -128 -77 -106 -165 -212 -264 -318 -31 -33 52 47 185 178
l240 238 73 -11 c40 -7 75 -10 78 -7 2 3 -22 9 -54 12 -32 4 -63 10 -70 14 -8
4 46 65 145 163 l157 157 285 -14 c157 -8 294 -14 305 -13 80 3 -361 37 -505
38 -26 0 -31 3 -20 10 19 12 259 3 400 -15 58 -8 148 -16 201 -20 115 -7 188
-24 215 -51 19 -19 19 -19 -28 -57 -32 -25 -54 -36 -70 -34 -13 2 -17 2 -10 0
19 -7 14 -19 -20 -48 -18 -14 -46 -37 -63 -51 -16 -14 -55 -38 -85 -54 -54
-27 -59 -28 -295 -35 -132 -4 -244 -11 -250 -17 -7 -6 66 -8 208 -6 185 3 215
1 200 -11 -16 -12 -12 -13 26 -7 l45 7 -26 -21 c-25 -19 -40 -20 -290 -20
-192 -1 -258 -3 -245 -11 11 -7 113 -13 244 -17 193 -4 223 -7 208 -19 -14
-10 -68 -13 -214 -15 -146 -1 -178 -3 -126 -8 39 -4 121 -8 184 -9 l114 -1
-51 -40 c-27 -22 -60 -40 -73 -41 -13 0 -18 -3 -11 -6 10 -4 9 -10 -5 -26 -16
-18 -14 -17 14 3 32 23 33 23 239 17 114 -4 204 -4 201 -1 -3 3 -92 9 -199 12
l-193 7 51 37 c50 36 53 37 130 35 78 -2 79 -2 82 -29 l3 -28 42 22 c40 20
128 48 154 48 6 0 13 -10 15 -22 3 -20 9 -23 43 -23 34 0 40 -3 43 -22 3 -22
4 -22 70 12 60 31 67 32 78 17 11 -16 15 -15 46 8 l33 24 -16 -24 c-9 -14 -22
-35 -30 -47 -12 -20 -23 -23 -89 -25 l-75 -2 70 -3 71 -4 -4 -33 c-3 -29 1
-37 31 -60 38 -29 55 -27 94 12 33 33 39 22 14 -27 -21 -39 -28 -81 -14 -81 3
0 15 7 25 17 10 9 21 14 24 10 11 -11 -57 -123 -182 -297 -130 -181 -130 -181
-104 -245 10 -25 10 -37 -3 -67 -15 -35 -18 -37 -51 -31 -45 7 -86 -3 -86 -22
0 -20 26 -19 34 1 5 13 9 14 21 4 9 -8 13 -28 11 -64 -3 -60 1 -53 -83 -170
-36 -51 -63 -98 -63 -113 0 -17 4 -22 13 -16 6 4 18 8 26 8 8 0 55 47 105 104
50 58 105 112 121 121 44 24 129 138 115 155 -8 9 1 28 35 71 25 33 117 154
204 270 88 117 164 215 169 218 22 13 30 -27 14 -61 -12 -26 -13 -36 -5 -41 8
-5 1 -17 -22 -35 -28 -22 -35 -35 -35 -63 0 -26 -19 -65 -76 -157 -43 -67 -81
-136 -85 -152 -5 -17 -40 -71 -78 -120 -188 -241 -232 -302 -237 -325 -14 -70
-176 -332 -262 -423 -21 -22 -24 -30 -13 -37 16 -10 36 -4 72 21 l26 18 6 -49
c6 -52 -4 -130 -28 -220 -17 -64 -18 -70 -7 -70 4 0 19 33 31 73 28 88 47 125
110 222 27 42 55 91 61 110 6 19 15 33 20 30 4 -3 -8 -53 -26 -111 -19 -59
-34 -113 -34 -121 0 -7 -7 -13 -15 -13 -11 0 -13 -8 -8 -32 3 -18 7 -35 9 -36
1 -2 14 20 28 50 14 30 34 61 43 70 10 9 30 28 46 42 26 24 38 54 16 40 -20
-12 7 29 37 56 22 20 26 21 21 7 -15 -41 -19 -97 -8 -111 6 -7 10 -24 9 -36
-7 -53 21 -20 77 93 54 108 66 126 117 164 39 30 94 93 174 201 65 86 148 189
184 227 36 39 92 107 124 153 32 45 61 82 64 82 4 0 20 -20 35 -45 l29 -45
-42 -50 c-23 -28 -45 -50 -50 -50 -4 0 -41 -44 -81 -97 -40 -54 -77 -102 -81
-108 -4 -5 -18 -23 -31 -40 -14 -16 -47 -60 -74 -97 -28 -37 -54 -64 -59 -60
-5 4 -3 0 4 -9 20 -27 4 -52 -29 -45 -22 4 -29 2 -29 -10 0 -8 -4 -13 -9 -10
-5 3 -20 -3 -32 -13 -22 -18 -22 -20 -6 -26 13 -6 15 -11 6 -21 -6 -7 -8 -18
-4 -24 10 -16 -11 -12 -25 5 -15 18 -31 10 -23 -12 5 -13 2 -15 -12 -10 -15 6
-16 5 -5 -8 9 -11 9 -15 1 -15 -8 0 -10 -8 -6 -20 5 -15 3 -18 -8 -14 -23 8
-30 -26 -10 -50 10 -12 11 -15 3 -8 -19 16 -39 15 -46 -3 -7 -17 39 -76 70
-89 21 -9 20 -9 -4 -16 -30 -8 -70 7 -70 27 0 7 -12 18 -27 24 -15 6 -31 16
-36 22 -6 8 -7 6 -3 -5 3 -10 1 -20 -4 -23 -6 -4 -10 -15 -10 -26 0 -25 -26
-35 -47 -18 -15 13 -16 11 -10 -20 9 -41 -6 -63 -38 -55 -31 8 -59 -30 -42
-57 16 -26 -1 -38 -20 -14 -15 19 -15 19 -10 -8 3 -23 1 -27 -13 -22 -24 8
-46 -29 -55 -93 -4 -28 -9 -52 -13 -52 -3 0 -14 7 -24 17 -17 15 -19 15 -39
-3 -45 -41 -229 -284 -229 -303 0 -6 7 -11 16 -11 9 0 14 -5 12 -12 -6 -18
-28 -21 -28 -4 0 37 -22 16 -157 -152 -18 -23 -33 -45 -33 -51 0 -5 -9 -12
-19 -16 -11 -3 -24 -12 -30 -19 -6 -8 22 4 64 26 41 21 75 37 75 35 0 -6 -218
-187 -225 -187 -4 0 -4 9 0 19 5 16 2 18 -15 14 -15 -4 -19 -11 -15 -24 6 -16
2 -18 -26 -12 -31 6 -32 5 -25 -21 l7 -27 -31 16 c-16 8 -30 11 -30 6 0 -5 13
-16 29 -24 26 -13 32 -13 51 0 29 20 38 8 14 -18 -28 -31 -54 -43 -67 -30 -8
8 -7 11 3 11 8 0 1 10 -17 21 -30 19 -34 19 -62 4 -17 -8 -38 -27 -47 -40 -9
-14 -20 -22 -25 -19 -12 7 -39 -21 -39 -41 0 -9 -9 -29 -19 -44 -11 -15 -19
-36 -18 -46 1 -11 -3 -19 -11 -17 -6 1 -11 -2 -10 -7 2 -5 -8 -20 -22 -33 -14
-13 -53 -65 -87 -114 -34 -49 -99 -136 -143 -194 l-81 -105 68 74 c37 41 79
84 93 97 72 63 222 205 359 339 125 121 147 140 116 95 -78 -110 -329 -428
-453 -573 -14 -16 -13 -20 11 -45 15 -16 27 -35 27 -44 0 -8 -24 -37 -54 -63
-29 -27 -59 -63 -67 -82 -7 -18 -19 -33 -27 -33 -18 0 -45 -27 -38 -39 10 -16
-28 -51 -56 -53 -25 -2 -26 -4 -13 -17 12 -13 9 -17 -26 -33 -23 -10 -45 -16
-49 -13 -12 7 -70 -44 -70 -61 0 -7 -6 -11 -14 -8 -20 8 -91 -67 -78 -82 4 -4
2 -4 -4 -1 -12 7 -62 -38 -95 -84 l-20 -28 38 15 c21 9 48 25 61 37 48 44 17
-3 -78 -118 -54 -66 -97 -122 -95 -123 2 -2 29 13 60 35 78 53 139 91 147 92
3 1 4 -8 1 -19 -3 -11 -3 -20 0 -20 3 0 38 42 78 93 156 198 523 606 535 594
2 -1 -10 -44 -26 -95 -29 -90 -37 -142 -22 -142 4 0 22 9 40 20 18 11 35 20
38 20 11 0 -59 -115 -153 -253 -52 -77 -103 -158 -113 -180 -26 -60 -34 -128
-18 -150 13 -17 18 -16 118 13 116 33 160 38 160 16 0 -19 -222 -338 -282
-406 l-49 -55 40 -37 c43 -41 85 -56 110 -41 9 5 28 39 43 75 14 37 46 91 71
121 49 61 64 96 70 175 8 94 113 279 208 367 32 30 32 30 25 5 -22 -81 -17
-255 7 -247 7 2 18 21 25 43 44 124 59 152 111 208 66 69 216 171 275 187 69
18 121 55 182 131 32 40 96 112 141 159 l83 86 -35 64 c-47 86 -85 209 -85
272 0 29 7 106 15 172 8 65 15 120 15 121 0 5 50 54 56 54 3 0 3 -10 0 -22 -4
-13 -8 -96 -10 -186 l-4 -163 24 -9 c26 -10 42 -42 68 -132 9 -32 22 -60 28
-64 6 -4 27 10 47 33 20 22 73 81 118 131 l83 90 -21 59 c-27 78 -41 181 -27
203 8 13 -1 36 -46 111 -38 62 -55 101 -52 114 3 11 6 31 6 45 0 24 2 24 33
-13 22 -26 37 -36 48 -32 13 5 15 1 12 -18 -4 -19 5 -35 36 -66 23 -23 41 -50
41 -61 0 -10 9 -43 20 -71 24 -59 18 -77 -12 -36 -11 15 -26 27 -34 27 -19 0
-9 -94 18 -168 l20 -52 51 46 52 46 5 97 5 96 18 -55 c10 -30 20 -61 22 -67 9
-27 104 48 255 199 132 132 166 161 230 193 41 21 86 45 100 55 23 16 30 17
90 3 47 -11 125 -15 283 -15 l217 0 -6 -79 c-5 -57 -3 -83 6 -94 7 -8 8 -15 2
-15 -5 0 -15 -34 -21 -74 -11 -76 -6 -140 10 -130 17 10 9 -27 -16 -73 -19
-37 -22 -50 -13 -61 10 -12 15 -10 31 9 10 13 16 31 14 41 -3 10 0 18 8 18 7
0 18 20 25 45 15 54 43 75 69 51 22 -20 31 -20 31 -1 0 8 5 15 10 15 6 0 10
-10 10 -23 0 -13 5 -28 11 -34 8 -8 6 -29 -6 -74 -24 -92 -25 -91 26 -112 41
-17 60 -19 153 -12 l106 7 11 41 c7 23 12 69 13 102 1 42 6 65 19 77 16 17 22
42 19 81 -3 28 18 19 32 -14 l13 -32 15 43 c20 60 38 63 38 8 0 -41 21 -88 39
-88 5 0 13 32 19 71 6 39 14 74 17 77 16 17 75 -91 75 -137 0 -32 18 -81 30
-81 4 0 13 7 20 15 7 8 20 15 29 15 9 0 22 5 28 11 7 7 20 2 43 -18 22 -18 35
-23 38 -15 5 16 22 15 22 -1 0 -7 7 -22 16 -33 14 -18 15 -16 9 28 -5 38 0 61
23 120 16 40 32 101 35 136 3 35 8 66 10 69 10 9 178 -17 201 -31 11 -8 38
-19 58 -26 65 -20 60 -42 -21 -86 l-46 -25 47 5 c27 3 60 9 75 12 31 8 31 8
-32 -71 -17 -23 -34 -59 -41 -94 -6 -31 -10 -57 -10 -58 1 -1 11 0 22 3 12 3
40 35 64 71 54 83 98 133 116 133 10 0 11 -6 4 -26 -6 -14 -10 -39 -10 -55 0
-29 1 -30 33 -24 17 4 52 18 77 30 44 22 91 37 158 49 l32 6 -16 -26 -17 -25
29 7 29 7 -34 -24 c-19 -13 -36 -30 -39 -36 -7 -23 24 -14 63 17 33 26 46 30
104 30 36 0 75 2 86 4 11 2 14 1 8 -1 -29 -10 -10 -21 20 -12 17 6 48 10 67
10 19 0 51 4 70 9 19 5 64 11 100 14 l65 6 -55 -20 c-110 -40 -149 -62 -159
-91 -5 -16 -14 -29 -18 -29 -13 0 -105 -91 -99 -97 3 -3 24 4 48 15 121 56
158 74 208 103 30 18 78 40 105 50 28 11 37 17 20 13 -16 -3 -41 -7 -55 -10
-22 -4 -21 -3 5 9 40 19 139 33 110 16 -11 -7 -22 -15 -25 -18 -3 -3 -27 -17
-55 -30 -40 -19 -46 -25 -31 -30 13 -5 -4 -14 -60 -30 -127 -37 -314 -178
-314 -238 0 -19 23 -16 54 8 14 11 43 25 64 31 20 5 62 29 92 53 59 46 188
120 195 113 3 -2 -29 -28 -71 -57 -41 -29 -78 -60 -81 -68 -4 -9 -22 -31 -42
-49 -30 -28 -33 -35 -21 -43 12 -9 13 -16 1 -53 -8 -25 -16 -100 -18 -178 -3
-142 6 -157 27 -40 15 87 54 201 95 280 l34 65 1 -87 c0 -48 4 -89 8 -92 5 -3
18 39 31 92 12 53 29 113 38 132 l17 35 6 -50 c9 -69 19 -89 36 -74 8 6 14 21
14 33 0 11 4 28 10 36 7 11 31 -8 112 -92 148 -151 198 -255 198 -415 0 -66
-3 -76 -29 -105 -25 -28 -36 -32 -91 -36 -41 -3 -88 2 -136 14 -96 23 -147 13
-152 -30 -3 -22 0 -27 12 -23 8 3 29 -1 47 -10 25 -12 63 -15 188 -14 86 0
174 4 197 7 l41 6 22 -135 c40 -251 31 -279 -91 -285 -113 -6 -177 11 -245 65
-32 24 -69 49 -83 54 -34 14 -70 3 -70 -21 0 -11 -9 -24 -20 -30 -11 -6 -20
-18 -20 -26 0 -8 4 -13 9 -9 5 3 22 -6 36 -19 15 -14 39 -25 53 -25 15 1 59
-11 99 -24 104 -37 203 -49 306 -36 121 15 143 6 257 -96 52 -48 125 -107 162
-132 39 -27 72 -57 78 -74 9 -20 29 -37 66 -54 29 -14 58 -33 63 -43 9 -15 12
-15 21 -2 6 8 8 23 6 34 -3 10 1 27 7 37 17 27 -20 59 -113 99 -96 42 -154 84
-191 137 l-28 43 46 0 c37 0 57 -7 99 -36 45 -31 61 -36 104 -35 28 0 59 5 68
10 20 11 134 -26 242 -78 36 -17 94 -35 129 -39 48 -7 69 -15 83 -32 14 -18
19 -19 24 -7 3 8 1 29 -3 47 -10 38 -60 70 -109 70 -62 0 -137 20 -151 40 -9
12 -25 20 -43 20 -32 0 -80 19 -80 31 0 16 56 39 67 28 17 -17 25 7 11 31 -14
24 -27 23 -128 -5 -69 -19 -111 -19 -158 1 -20 8 -67 19 -104 24 -37 4 -91 19
-121 33 -53 24 -54 25 -79 103 -25 74 -37 146 -53 303 l-6 63 27 -6 c15 -4 47
-25 73 -46 60 -51 81 -58 225 -76 67 -8 134 -19 149 -24 17 -6 36 -6 46 -1 10
6 23 6 33 0 13 -7 15 -5 11 10 -3 11 -14 29 -24 40 -18 19 -31 21 -132 21
-204 0 -266 22 -315 108 l-23 41 33 -4 c68 -9 259 -25 429 -36 156 -11 181
-11 225 4 31 10 53 12 59 6 5 -5 21 -9 36 -9 15 0 30 -6 32 -12 3 -7 6 10 6
39 2 88 -16 93 -139 43 -42 -18 -76 -23 -145 -24 -119 -1 -227 12 -222 27 2 7
14 11 26 10 30 -4 29 40 -1 54 -28 13 -56 3 -87 -31 -24 -25 -28 -26 -151 -26
-125 0 -127 0 -152 28 -14 15 -78 131 -142 257 -63 127 -133 253 -154 281
l-39 50 5 150 c3 115 0 165 -12 217 -9 38 -16 72 -16 76 0 5 18 21 41 37 47
32 97 102 158 221 50 96 108 166 161 193 21 11 86 33 146 49 247 69 358 144
654 441 204 205 238 235 360 316 256 168 426 309 651 541 162 167 225 242 295
348 71 110 109 188 141 292 27 87 27 92 30 412 3 372 8 416 83 696 145 543
247 770 436 975 86 92 232 158 501 226 265 67 548 82 736 39 42 -10 80 -15 84
-11 4 3 -9 23 -28 42 l-34 37 55 -7 c30 -4 70 -9 89 -13 31 -5 33 -5 22 16
-16 29 -94 90 -277 215 -157 109 -240 154 -371 207 -192 77 -339 119 -523 150
-173 28 -171 28 -186 80 -50 169 -364 331 -749 385 -162 23 -473 24 -570 2
-230 -53 -325 -127 -732 -575 -150 -165 -229 -243 -246 -243 -2 0 -7 24 -11
53 -4 28 -22 113 -41 188 -58 229 -83 411 -105 759 -6 91 -17 218 -26 284 -15
121 -79 474 -87 483 -3 2 -36 -10 -73 -28 -38 -18 -73 -35 -79 -38 -5 -2 5 8
23 24 18 15 51 54 73 86 40 59 41 64 22 133 -5 19 -6 19 -16 1 -7 -14 -7 -20
2 -23 9 -3 6 -11 -8 -26 -11 -11 -20 -23 -19 -26 0 -11 -26 -60 -33 -60 -4 0
-5 10 -1 23 5 22 5 22 -16 3 -22 -19 -22 -19 -22 2 0 16 -6 20 -27 19 -21 -2
-29 -9 -35 -32 -4 -17 -17 -41 -28 -55 l-21 -25 7 30 c4 17 24 56 46 87 21 31
38 59 38 62 0 2 14 27 31 55 17 27 29 56 26 63 -3 7 -14 -8 -26 -35 -12 -26
-26 -45 -32 -42 -5 4 -7 10 -5 14 3 4 21 31 40 60 l36 53 -22 41 c-41 79 -40
78 -22 98 21 24 7 25 -19 2 -17 -16 -17 -14 3 25 17 32 20 46 11 55 -8 8 -11
4 -11 -15 0 -15 -5 -30 -12 -34 -7 -4 -8 -3 -4 5 4 6 3 18 -4 26 -8 10 -8 19
2 35 12 20 9 26 -43 73 -30 29 -100 76 -155 106 -54 30 -142 82 -195 117 -89
59 -100 64 -151 64 -31 0 -85 -9 -120 -20 -87 -27 -154 -35 -172 -21 -9 7 -17
8 -20 2 -4 -5 -22 -1 -46 10 -47 23 -58 24 -80 4 -15 -13 -24 -13 -83 1 -37 9
-67 21 -67 26 0 5 7 23 16 39 8 17 14 45 12 62 -2 27 -8 33 -31 35 -25 3 -223
-35 -462 -89 -49 -11 -153 -25 -230 -31 -97 -7 -154 -16 -184 -29 l-44 -19 19
22 c10 13 27 30 38 39 11 10 17 23 13 32 -8 21 3 27 97 52 75 19 113 45 66 45
-21 0 -172 -34 -222 -49 -16 -6 -30 -5 -37 2 -6 6 -42 10 -81 9 -67 -1 -91 10
-51 23 11 3 26 17 35 30 9 13 36 33 62 44 33 15 49 29 57 51 10 26 21 33 71
48 38 11 64 26 75 41 l15 24 -117 -5 c-64 -3 -117 -4 -117 -3 0 2 37 13 83 25
45 12 96 30 112 40 17 11 68 23 115 29 84 11 177 46 173 66 -3 14 -39 23 -101
24 -40 1 -72 -7 -123 -30 -39 -16 -80 -29 -92 -27 -17 3 -11 9 30 27 110 49
95 79 -26 56 -143 -27 -115 -7 89 65 l105 38 -60 12 c-33 6 -76 15 -95 20 -19
5 -75 14 -125 20 -85 11 -99 10 -253 -19 -187 -35 -175 -34 -167 -22 3 6 51
20 108 33 102 23 102 23 57 30 -25 3 -94 2 -155 -3 -197 -16 -354 -65 -613
-189 l-163 -79 -77 20 c-97 26 -113 39 -44 39 44 0 50 2 45 17 -5 14 -1 15 28
10 l34 -6 -28 15 c-91 49 -510 213 -756 294 -524 173 -1291 345 -1872 419 -85
11 -238 41 -340 66 -343 85 -705 152 -1414 261 -366 56 -373 57 -615 59 -135
1 -267 1 -295 -1z m6570 -1184 c-3 -5 -10 -10 -16 -10 -5 0 -9 5 -9 10 0 6 7
10 16 10 8 0 12 -4 9 -10z m-88 -33 c-4 -10 12 -12 67 -9 57 3 69 2 59 -9 -17
-17 -138 -18 -155 -1 -10 10 -10 15 2 22 21 14 33 12 27 -3z m-5517 -207 c0
-5 -4 -10 -9 -10 -6 0 -13 5 -16 10 -3 6 1 10 9 10 9 0 16 -4 16 -10z m4030
-89 c0 -12 -20 -25 -27 -18 -7 7 6 27 18 27 5 0 9 -4 9 -9z m1290 -10 c38 -10
30 -34 -15 -47 -59 -18 -106 -18 -99 1 5 13 -8 15 -82 16 -49 0 -98 4 -109 8
-20 8 2 12 125 24 62 6 154 5 180 -2z m-1190 -17 c0 -8 -5 -12 -10 -9 -6 4 -8
11 -5 16 9 14 15 11 15 -7z m645 -4 c-3 -5 -10 -10 -16 -10 -5 0 -9 5 -9 10 0
6 7 10 16 10 8 0 12 -4 9 -10z m69 1 c3 -5 -5 -11 -19 -13 -24 -5 -32 2 -18
15 9 10 31 9 37 -2z m111 -1 c-3 -5 -24 -10 -46 -10 -24 0 -38 4 -34 10 3 6
24 10 46 10 24 0 38 -4 34 -10z m-5315 -120 c11 -7 -3 -10 -45 -10 -42 0 -56
3 -45 10 8 5 29 10 45 10 17 0 37 -5 45 -10z m6785 -39 c-3 -6 -11 -11 -17
-11 -6 0 -6 6 2 15 14 17 26 13 15 -4z m-2546 -55 c21 -25 -4 -20 -49 10 -22
15 -40 31 -40 36 0 11 73 -26 89 -46z m1655 39 c-6 -16 -24 -21 -24 -7 0 11
11 22 21 22 5 0 6 -7 3 -15z m-294 -14 c-21 -12 -110 -20 -110 -11 0 12 27 18
80 19 29 0 40 -3 30 -8z m240 -1 c0 -5 -9 -10 -21 -10 -11 0 -17 5 -14 10 3 6
13 10 21 10 8 0 14 -4 14 -10z m205 -40 c4 -6 -5 -10 -19 -10 -14 0 -26 5 -26
10 0 6 9 10 19 10 11 0 23 -4 26 -10z m60 0 c-3 -5 -11 -10 -16 -10 -6 0 -7 5
-4 10 3 6 11 10 16 10 6 0 7 -4 4 -10z m-1668 -6 c-3 -3 -12 -4 -19 -1 -8 3
-5 6 6 6 11 1 17 -2 13 -5z m3113 -90 c0 -14 -3 -14 -15 -4 -8 7 -15 14 -15
16 0 2 7 4 15 4 8 0 15 -7 15 -16z m-1180 -4 c0 -5 -2 -10 -4 -10 -3 0 -8 5
-11 10 -3 6 -1 10 4 10 6 0 11 -4 11 -10z m836 -6 c-4 -10 1 -25 9 -34 9 -10
12 -21 7 -24 -5 -3 -17 3 -26 13 -14 15 -15 24 -6 40 13 25 25 28 16 5z m-100
-58 c-27 -47 -26 -56 11 -56 51 0 10 -17 -72 -30 -78 -12 -91 -12 -143 4 -82
26 -112 56 -53 54 15 -1 32 2 37 5 5 3 33 1 62 -4 46 -9 57 -7 86 10 18 11 41
29 51 41 10 11 25 20 33 20 10 0 8 -11 -12 -44z m409 -4 c-3 -3 -11 0 -18 7
-9 10 -8 11 6 5 10 -3 15 -9 12 -12z m-7390 -2 c4 -6 -7 -10 -25 -10 -18 0
-29 4 -25 10 3 6 15 10 25 10 10 0 22 -4 25 -10z m7499 -42 c27 -37 20 -48
-28 -48 -25 0 -48 5 -51 10 -3 6 3 10 14 10 14 0 21 6 21 18 0 37 22 42 44 10z
m-106 0 c15 -15 16 -48 2 -48 -5 0 -10 7 -10 16 0 9 -9 18 -20 21 -11 3 -20 9
-20 14 0 13 34 11 48 -3z m-341 -17 c-2 -10 -1 -25 4 -33 6 -12 3 -17 -12 -21
-28 -7 -35 17 -15 48 19 30 30 32 23 6z m573 9 c0 -5 -2 -10 -4 -10 -3 0 -8 5
-11 10 -3 6 -1 10 4 10 6 0 11 -4 11 -10z m103 -22 c-3 -15 11 -47 36 -90 55
-91 54 -117 -2 -55 -24 26 -49 47 -56 47 -7 0 -9 5 -6 10 4 6 -5 26 -20 45
l-26 35 27 0 c15 0 24 3 21 7 -9 8 13 34 23 28 4 -2 5 -15 3 -27z m-7549 2
c-11 -11 -121 -50 -138 -50 -6 1 18 14 54 30 67 29 102 38 84 20z m7029 -50
c35 -11 75 -29 88 -39 26 -21 75 -108 66 -117 -3 -3 -20 2 -39 12 -38 19 -238
154 -238 160 0 10 64 2 123 -16z m421 -19 c18 -20 18 -23 4 -37 -14 -14 -17
-13 -37 12 -27 34 -29 69 -3 55 9 -5 26 -19 36 -30z m-7664 -21 c0 -10 -32
-30 -49 -30 -19 0 -12 17 12 28 28 14 37 14 37 2z m50 -46 c0 -14 -4 -23 -10
-19 -5 3 -10 15 -10 26 0 10 5 19 10 19 6 0 10 -12 10 -26z m6955 6 c-10 -11
-28 -20 -39 -20 -17 1 -14 5 14 20 45 24 47 24 25 0z m677 -43 c-26 -26 -42
-36 -42 -26 0 8 7 24 16 35 8 10 13 13 9 7 -11 -22 6 -14 27 13 11 14 23 22
26 19 3 -3 -13 -25 -36 -48z m-7932 24 c0 -6 -9 -26 -21 -45 l-21 -36 21 0
c20 0 30 -24 14 -33 -5 -2 -39 -1 -77 2 l-69 6 52 58 c36 39 61 57 77 57 13 0
24 -4 24 -9z m8015 -60 c-3 -12 -11 -21 -16 -21 -10 0 -12 43 -2 54 12 12 25
-11 18 -33z m-759 -20 c-8 -15 -21 -32 -28 -38 -10 -9 -13 -5 -12 19 1 31 29
62 45 52 5 -3 2 -18 -5 -33z m434 -7 c0 -16 -16 -19 -25 -4 -8 13 4 32 16 25
5 -4 9 -13 9 -21z m374 7 c4 -5 3 -16 0 -25 -5 -12 -9 -13 -24 -3 -14 8 -16
15 -8 24 12 15 25 17 32 4z m-8104 -60 c0 -14 -28 -21 -91 -21 -48 0 -57 3
-53 15 5 11 23 15 75 15 38 0 69 -4 69 -9z m570 0 c0 -6 -4 -13 -10 -16 -5 -3
-10 1 -10 9 0 9 5 16 10 16 6 0 10 -4 10 -9z m7610 -53 c0 -18 -16 -6 -33 25
l-19 32 26 -24 c14 -14 26 -28 26 -33z m-165 -15 c-10 -42 -25 -52 -25 -17 0
32 6 44 23 44 5 0 6 -12 2 -27z m-255 -12 c0 -5 -7 -11 -15 -15 -15 -5 -20 5
-8 17 9 10 23 9 23 -2z m377 -43 c-3 -7 -5 -2 -5 12 0 14 2 19 5 13 2 -7 2
-19 0 -25z m-363 -13 c-4 -10 0 -15 13 -15 15 0 24 -14 37 -57 11 -37 32 -73
55 -98 42 -45 79 -131 63 -147 -6 -6 -15 7 -26 38 -9 27 -33 65 -53 86 -20 21
-46 57 -58 80 -16 31 -31 46 -55 54 -20 7 -28 14 -21 18 6 4 11 16 11 26 0 10
8 21 18 23 9 3 18 5 19 6 1 0 0 -6 -3 -14z m-44 1 c0 -3 -4 -8 -10 -11 -5 -3
-10 -1 -10 4 0 6 5 11 10 11 6 0 10 -2 10 -4z m190 -25 c0 -6 -4 -13 -10 -16
-5 -3 -10 1 -10 9 0 9 5 16 10 16 6 0 10 -4 10 -9z m95 -194 c4 -23 12 -48 18
-55 8 -10 4 -19 -14 -37 l-24 -24 -1 84 c-1 89 9 104 21 32z m120 23 c-10 -11
-20 -18 -23 -15 -3 3 3 14 13 25 10 11 20 18 23 15 3 -3 -3 -14 -13 -25z
m-1027 -5 c-6 -14 -13 -23 -15 -21 -5 5 15 46 22 46 3 0 -1 -11 -7 -25z
m-7538 5 c0 -5 -2 -10 -4 -10 -3 0 -8 5 -11 10 -3 6 -1 10 4 10 6 0 11 -4 11
-10z m1859 -61 c-12 -24 -14 -24 101 0 52 12 136 14 127 4 -19 -19 -165 -54
-262 -63 -217 -22 -296 -40 -220 -51 l40 -5 -35 -16 c-21 -9 -80 -18 -150 -21
-129 -7 -229 -30 -340 -78 -71 -30 -187 -53 -149 -30 9 6 154 64 321 130 223
87 320 120 364 124 32 3 82 10 109 15 28 5 63 10 78 11 25 1 27 -1 16 -20z
m-29 -118 c-8 -5 -42 -11 -75 -15 -66 -6 -63 0 6 13 61 12 89 13 69 2z m3160
-1000 c-8 -5 -46 -14 -85 -20 -38 -7 -74 -16 -80 -21 -20 -16 -910 -53 -895
-37 12 12 434 63 605 73 61 4 112 8 114 10 2 2 83 4 180 4 102 0 170 -4 161
-9z m-1220 -63 c38 -7 70 -15 70 -20 0 -4 -70 -8 -155 -10 -85 -2 -150 1 -146
5 15 15 86 36 123 37 21 0 69 -5 108 -12z m-425 -278 c-4 -7 14 -9 52 -5 32 3
54 3 48 0 -11 -5 -376 -112 -410 -120 -29 -7 123 65 170 81 58 19 22 17 -182
-7 -96 -11 -180 -18 -186 -16 -17 5 293 58 394 66 52 5 100 9 107 10 7 0 10
-4 7 -9z m-474 -14 c-10 -12 -151 -67 -256 -101 -38 -12 140 78 190 96 63 23
82 24 66 5z m1042 -3 c-7 -2 -19 -2 -25 0 -7 3 -2 5 12 5 14 0 19 -2 13 -5z
m337 -82 c34 -5 9 -9 -110 -15 -85 -4 -243 -14 -350 -22 -107 -7 -211 -13
-230 -13 -39 1 133 34 250 48 92 10 379 12 440 2z m-770 -441 c-8 -5 -19 -10
-25 -10 -5 0 -3 5 5 10 8 5 20 10 25 10 6 0 3 -5 -5 -10z m629 -94 c-2 -2 -31
-6 -64 -9 -39 -4 -51 -3 -35 2 25 9 107 15 99 7z m-985 -35 c3 -5 -3 -11 -14
-14 -20 -5 -26 3 -13 16 9 10 21 9 27 -2z m245 -40 c9 -6 -2 -10 -33 -12 -39
-4 -44 -2 -29 8 20 15 42 16 62 4z m-464 -41 c-3 -5 2 -10 11 -10 32 0 9 -7
-43 -14 -43 -5 -53 -4 -53 8 0 10 13 16 38 19 20 2 41 4 45 5 5 1 5 -2 2 -8z
m648 -684 c17 3 39 11 49 17 21 14 65 -15 88 -57 14 -26 14 -28 -12 -51 -16
-13 -28 -28 -28 -34 0 -5 -9 -12 -19 -16 -24 -7 -121 -111 -121 -129 0 -18 26
-38 96 -75 64 -34 84 -60 84 -112 0 -49 -17 -72 -48 -65 -22 5 -24 4 -9 -4 15
-10 15 -13 3 -25 -11 -11 -21 -12 -43 -5 -41 14 -251 50 -290 50 -18 0 -33 -4
-33 -10 0 -5 13 -10 28 -10 34 0 303 -47 310 -55 15 -15 -16 -14 -129 5 -157
25 -399 50 -484 50 -68 0 -76 4 -47 26 9 7 12 14 6 14 -6 0 -17 -7 -24 -15
-13 -16 -140 -22 -140 -7 0 4 123 129 273 279 262 261 275 273 362 316 l90 45
3 -70 3 -69 32 7z m342 -684 c-3 -3 -11 0 -18 7 -9 10 -8 11 6 5 10 -3 15 -9
12 -12z m6 -23 c50 -17 62 -29 47 -46 -10 -13 -7 -14 22 -11 20 2 35 -2 37 -9
3 -7 -2 -13 -10 -13 -9 0 -17 -5 -19 -12 -3 -8 -37 -3 -116 17 l-112 27 42 28
c49 32 62 34 109 19z m-261 -29 c0 -5 -7 -10 -16 -10 -8 0 -12 5 -9 10 3 6 10
10 16 10 5 0 9 -4 9 -10z m-17 -40 c9 0 17 -7 17 -15 0 -13 4 -14 33 -2 22 10
48 12 82 7 89 -13 170 -31 179 -40 12 -12 -32 -23 -68 -16 -24 5 -37 2 -47
-10 -11 -14 -11 -18 -1 -21 24 -9 11 -31 -42 -71 l-54 -41 -108 -1 c-184 -2
-225 0 -220 9 3 5 -11 3 -32 -5 -41 -14 -102 -18 -102 -6 0 4 15 17 33 28 27
18 52 22 152 26 106 4 116 3 97 -10 -12 -8 -22 -18 -22 -23 0 -17 35 -9 72 16
20 14 41 25 46 25 6 0 12 7 16 15 3 8 12 15 21 15 8 0 15 4 15 10 0 5 -21 0
-46 -10 -37 -16 -69 -20 -167 -20 l-121 0 64 45 c62 44 80 48 80 19 0 -16 23
-18 49 -5 25 14 150 21 178 10 18 -7 24 -6 21 3 -6 16 -39 24 -141 33 l-87 7
23 19 c12 11 31 17 42 14 11 -3 28 -5 38 -5z m392 -184 c-18 -27 -50 -41 -82
-34 -13 3 -3 13 37 36 30 17 56 29 58 27 2 -2 -4 -15 -13 -29z m-767 -83 c2
-9 -10 -13 -44 -13 -44 0 -46 1 -28 15 22 17 66 16 72 -2z m1867 -685 c-30
-40 -55 -80 -55 -89 0 -52 -23 -81 -84 -109 -33 -16 -85 -42 -113 -59 -50 -29
-53 -30 -53 -11 0 32 -17 23 -33 -17 -8 -21 -29 -48 -46 -61 -17 -12 -31 -29
-31 -37 0 -19 -11 -19 -36 0 -13 11 -14 13 -3 9 13 -4 15 0 12 18 -4 23 54
113 200 311 l54 73 94 13 c51 7 103 17 114 22 36 14 35 10 -20 -63z m-321 27
c25 -4 46 -9 46 -12 0 -5 -55 -87 -147 -220 l-64 -92 -35 39 -36 40 84 130
c45 71 88 128 94 126 6 -3 32 -8 58 -11z m-169 -455 c3 -5 -1 -10 -10 -10 -9
0 -13 5 -10 10 3 6 8 10 10 10 2 0 7 -4 10 -10z m-44 -63 c-13 -13 -26 -3 -16
12 3 6 11 8 17 5 6 -4 6 -10 -1 -17z m-118 -204 c4 -3 5 -9 2 -14 -7 -11 -45
7 -45 21 0 8 20 5 43 -7z m-480 -686 c-28 -29 -54 -62 -57 -73 -8 -20 -115
-115 -401 -354 -254 -212 -262 -218 -179 -125 95 106 305 309 429 416 107 92
234 189 249 189 5 0 -14 -24 -41 -53z m-223 -711 c0 -4 -425 -387 -479 -431
-54 -45 88 113 182 201 44 41 127 110 185 154 105 79 112 84 112 76z m-10 -60
c0 -3 -4 -8 -10 -11 -5 -3 -10 -1 -10 4 0 6 5 11 10 11 6 0 10 -2 10 -4z m619
-109 c-2 -3 -15 10 -28 27 l-24 31 28 -27 c16 -15 27 -29 24 -31z m-117 -29
c-7 -7 -12 -8 -12 -2 0 14 12 26 19 19 2 -3 -1 -11 -7 -17z m215 6 c-3 -3 -12
-4 -19 -1 -8 3 -5 6 6 6 11 1 17 -2 13 -5z m-37 -24 c0 -5 -2 -10 -4 -10 -3 0
-8 5 -11 10 -3 6 -1 10 4 10 6 0 11 -4 11 -10z m-458 -32 c-9 -9 -12 -7 -12
12 0 19 3 21 12 12 9 -9 9 -15 0 -24z m3865 -104 c-3 -3 -12 -4 -19 -1 -8 3
-5 6 6 6 11 1 17 -2 13 -5z m-4821 -117 c-9 -12 -82 -85 -163 -162 -114 -108
-135 -125 -93 -75 72 86 246 260 260 260 6 0 5 -9 -4 -23z m924 -76 c-11 -21
-30 -37 -30 -25 0 8 30 44 37 44 2 0 -1 -9 -7 -19z m-460 -456 c-13 -14 -25
-23 -27 -21 -8 7 10 35 25 39 10 3 19 5 21 6 3 0 -6 -10 -19 -24z m-311 -303
c-31 -35 -49 -44 -49 -23 0 7 67 59 79 60 2 1 -12 -16 -30 -37z"/>
<path d="M6216 7622 c-33 -23 -36 -27 -20 -33 32 -13 44 -10 44 9 0 10 5 23
12 30 23 23 3 19 -36 -6z"/>
<path d="M6045 7520 c-3 -5 3 -10 14 -10 12 0 21 5 21 10 0 6 -6 10 -14 10 -8
0 -18 -4 -21 -10z"/>
<path d="M5905 7450 c3 -5 10 -10 16 -10 5 0 9 5 9 10 0 6 -7 10 -16 10 -8 0
-12 -4 -9 -10z"/>
<path d="M6035 7390 c11 -5 31 -8 45 -8 l25 0 -25 8 c-14 4 -34 8 -45 8 l-20
1 20 -9z"/>
<path d="M6188 7363 c7 -3 16 -2 19 1 4 3 -2 6 -13 5 -11 0 -14 -3 -6 -6z"/>
<path d="M6271 7340 c31 -9 69 -20 85 -24 25 -5 26 -5 10 5 -18 11 -122 39
-141 38 -5 -1 15 -9 46 -19z"/>
<path d="M6118 7333 c7 -3 16 -2 19 1 4 3 -2 6 -13 5 -11 0 -14 -3 -6 -6z"/>
<path d="M6318 7293 c7 -3 16 -2 19 1 4 3 -2 6 -13 5 -11 0 -14 -3 -6 -6z"/>
<path d="M6338 6933 c6 -2 18 -2 25 0 6 3 1 5 -13 5 -14 0 -19 -2 -12 -5z"/>
<path d="M590 12460 c0 -5 7 -10 15 -10 8 0 15 5 15 10 0 6 -7 10 -15 10 -8 0
-15 -4 -15 -10z"/>
<path d="M530 12449 c0 -7 -76 -8 -247 -3 -196 5 -246 4 -236 -6 15 -16 684
-18 728 -1 24 9 7 10 -87 6 -70 -2 -120 0 -123 5 -8 13 -35 13 -35 -1z"/>
<path d="M1555 12060 c-340 -13 -413 -20 -418 -41 -3 -10 -18 -21 -33 -24
-123 -28 -409 -123 -371 -124 10 -1 152 13 317 30 231 23 304 27 321 19 11 -7
22 -10 23 -8 1 2 8 16 14 32 12 26 14 27 25 12 12 -16 26 -16 167 -6 324 24
389 30 540 55 85 14 173 25 195 26 38 1 38 1 12 9 -30 9 -465 31 -552 28 -27
-1 -135 -4 -240 -8z"/>
<path d="M2938 11873 c7 -3 16 -2 19 1 4 3 -2 6 -13 5 -11 0 -14 -3 -6 -6z"/>
<path d="M2750 11216 c0 -2 7 -7 16 -10 8 -3 12 -2 9 4 -6 10 -25 14 -25 6z"/>
<path d="M1290 11054 c-195 -26 -198 -32 -19 -33 l166 -1 -5 25 c-5 28 1 28
-142 9z"/>
<path d="M1012 10988 c-16 -16 -15 -28 1 -24 6 3 24 7 40 10 15 4 27 11 27 16
0 14 -54 12 -68 -2z"/>
<path d="M11450 10961 c-16 -31 -8 -46 12 -24 11 12 14 23 9 32 -7 11 -11 9
-21 -8z"/>
<path d="M2410 10901 c0 -25 28 -31 73 -15 26 9 47 18 47 20 0 2 -27 4 -60 4
-33 0 -60 -4 -60 -9z"/>
<path d="M3013 10333 c9 -2 23 -2 30 0 6 3 -1 5 -18 5 -16 0 -22 -2 -12 -5z"/>
<path d="M3295 10071 c-3 -5 -22 -15 -43 -21 -70 -22 -67 -24 33 -31 71 -4
144 -1 250 12 228 27 248 31 233 40 -18 12 -465 11 -473 0z"/>
<path d="M3864 10045 c61 -27 103 -27 127 1 9 12 7 14 -17 14 -16 0 -60 3 -99
6 l-70 5 59 -26z"/>
<path d="M4135 10050 c-3 -5 1 -10 9 -10 9 0 16 5 16 10 0 6 -4 10 -9 10 -6 0
-13 -4 -16 -10z"/>
<path d="M4198 10053 c6 -2 18 -2 25 0 6 3 1 5 -13 5 -14 0 -19 -2 -12 -5z"/>
<path d="M4025 10040 c-3 -5 -1 -10 4 -10 6 0 11 5 11 10 0 6 -2 10 -4 10 -3
0 -8 -4 -11 -10z"/>
<path d="M3500 10000 l-35 -7 35 -1 c19 0 44 3 55 8 l20 9 -20 -1 c-11 0 -36
-4 -55 -8z"/>
<path d="M3865 10000 c-3 -5 1 -10 10 -10 9 0 13 5 10 10 -3 6 -8 10 -10 10
-2 0 -7 -4 -10 -10z"/>
<path d="M2570 9834 c0 -13 8 -15 53 -9 90 13 99 24 20 24 -60 1 -73 -2 -73
-15z"/>
<path d="M2805 9769 c-4 -6 -5 -13 -1 -16 8 -8 56 6 56 17 0 13 -47 13 -55 -1z"/>
<path d="M3565 9760 c-3 -5 1 -10 10 -10 9 0 13 5 10 10 -3 6 -8 10 -10 10 -2
0 -7 -4 -10 -10z"/>
<path d="M3660 9750 c0 -5 7 -10 15 -10 8 0 15 5 15 10 0 6 -7 10 -15 10 -8 0
-15 -4 -15 -10z"/>
<path d="M3400 9642 c0 -18 26 -32 57 -32 38 0 46 24 11 34 -33 8 -68 7 -68
-2z"/>
<path d="M3525 9630 c-3 -5 5 -12 18 -15 35 -9 80 -2 85 13 5 15 -93 17 -103
2z"/>
<path d="M3340 9620 c0 -5 7 -7 15 -4 8 4 15 8 15 10 0 2 -7 4 -15 4 -8 0 -15
-4 -15 -10z"/>
<path d="M3015 9610 c3 -5 15 -10 26 -10 10 0 19 5 19 10 0 6 -12 10 -26 10
-14 0 -23 -4 -19 -10z"/>
<path d="M3130 9610 c0 -5 5 -10 10 -10 6 0 10 5 10 10 0 6 -4 10 -10 10 -5 0
-10 -4 -10 -10z"/>
<path d="M2815 9600 c-3 -5 1 -10 9 -10 9 0 16 5 16 10 0 6 -4 10 -9 10 -6 0
-13 -4 -16 -10z"/>
<path d="M2678 9593 c7 -3 16 -2 19 1 4 3 -2 6 -13 5 -11 0 -14 -3 -6 -6z"/>
<path d="M5425 9400 c-55 -16 -95 -29 -88 -29 22 -2 152 29 185 43 52 23 12
17 -97 -14z"/>
<path d="M3500 9379 c-240 -37 -625 -100 -643 -105 -16 -5 -15 -8 8 -25 15
-12 33 -18 44 -14 10 3 23 -1 31 -10 7 -9 21 -13 35 -9 25 6 39 -16 30 -47 -5
-16 10 -13 114 23 115 40 121 44 121 69 0 36 10 60 21 53 5 -3 9 -19 9 -36 0
-20 4 -28 13 -25 6 3 86 34 177 69 91 36 172 67 180 71 26 10 -5 7 -140 -14z"/>
<path d="M5298 9363 c7 -3 16 -2 19 1 4 3 -2 6 -13 5 -11 0 -14 -3 -6 -6z"/>
<path d="M4650 9284 c-185 -51 -410 -125 -410 -136 0 -5 5 -6 10 -3 6 4 32 8
57 11 26 3 60 11 76 19 16 8 33 12 37 10 5 -3 53 5 107 16 74 17 118 34 183
71 46 26 80 48 75 47 -6 0 -66 -16 -135 -35z"/>
<path d="M2924 9189 c-4 -7 4 -20 17 -30 41 -32 53 -21 20 19 -22 25 -27 27
-37 11z"/>
<path d="M4791 9130 c-80 -20 -194 -86 -172 -100 8 -4 2 -9 -17 -13 -16 -3
-46 -17 -65 -30 -20 -13 -58 -27 -86 -30 -28 -3 -61 -12 -75 -19 -24 -13 -23
-13 19 -14 36 -1 81 18 272 112 125 62 221 112 213 112 -8 0 -48 -8 -89 -18z"/>
<path d="M2146 7771 c-28 -18 -28 -19 -7 -26 25 -7 54 11 44 28 -4 6 0 8 10 4
9 -3 19 -2 22 3 11 17 -39 11 -69 -9z"/>
<path d="M2047 7713 c-54 -32 -211 -169 -232 -202 -11 -18 -16 -41 -8 -41 2 0
37 26 76 58 40 32 110 87 157 122 110 82 105 77 84 88 -15 7 -33 1 -77 -25z"/>
<path d="M4560 7500 c20 -13 47 -13 55 0 4 6 -9 10 -32 10 -28 0 -34 -3 -23
-10z"/>
<path d="M4673 7493 c9 -2 23 -2 30 0 6 3 -1 5 -18 5 -16 0 -22 -2 -12 -5z"/>
<path d="M4751 7481 c-11 -7 -3 -12 28 -21 52 -14 89 -9 51 7 -47 20 -65 23
-79 14z"/>
<path d="M4858 7468 c5 -5 16 -8 23 -6 8 3 3 7 -10 11 -17 4 -21 3 -13 -5z"/>
<path d="M4916 7472 c-3 -5 1 -9 9 -9 8 0 12 4 9 9 -3 4 -7 8 -9 8 -2 0 -6 -4
-9 -8z"/>
<path d="M5100 7454 c0 -2 9 -8 20 -14 11 -6 20 -7 20 -2 0 6 -9 12 -20 15
-11 3 -20 3 -20 1z"/>
<path d="M5179 7439 c-9 -5 13 -9 60 -9 41 0 72 2 70 4 -10 9 -117 13 -130 5z"/>
<path d="M1709 7403 l-24 -28 28 24 c25 23 32 31 24 31 -2 0 -14 -12 -28 -27z"/>
<path d="M4708 7423 c7 -3 16 -2 19 1 4 3 -2 6 -13 5 -11 0 -14 -3 -6 -6z"/>
<path d="M4618 7413 c7 -3 16 -2 19 1 4 3 -2 6 -13 5 -11 0 -14 -3 -6 -6z"/>
<path d="M4718 7403 c7 -3 16 -2 19 1 4 3 -2 6 -13 5 -11 0 -14 -3 -6 -6z"/>
<path d="M5198 7403 c12 -2 32 -2 45 0 12 2 2 4 -23 4 -25 0 -35 -2 -22 -4z"/>
<path d="M4580 7340 c0 -5 5 -10 11 -10 5 0 7 5 4 10 -3 6 -8 10 -11 10 -2 0
-4 -4 -4 -10z"/>
<path d="M4310 7301 c8 -5 26 -12 40 -15 l25 -7 -25 15 c-14 9 -32 15 -40 15
-13 0 -13 -1 0 -8z"/>
<path d="M2388 7284 c-11 -10 2 -30 54 -86 52 -55 49 -35 -5 37 -43 56 -43 56
-49 49z"/>
<path d="M3970 7263 c0 -9 81 -45 88 -39 4 4 -71 46 -83 46 -3 0 -5 -3 -5 -7z"/>
<path d="M4611 7196 c2 -2 18 -6 34 -10 22 -5 26 -4 15 4 -14 9 -59 15 -49 6z"/>
<path d="M4780 7167 c8 -8 296 -49 317 -45 10 2 -43 12 -117 22 -74 10 -151
20 -170 23 -19 3 -33 3 -30 0z"/>
<path d="M2620 7135 c-7 -8 -13 -34 -14 -56 -1 -33 -3 -38 -11 -23 -15 28 -62
74 -75 74 -6 0 10 -25 36 -55 26 -30 51 -52 55 -49 4 2 10 0 14 -6 3 -5 10
-10 14 -10 12 0 91 63 91 73 0 16 -61 67 -80 67 -10 0 -23 -7 -30 -15z"/>
<path d="M5970 7083 c23 -5 24 -6 5 -13 -14 -6 -8 -8 23 -8 54 0 42 18 -14 23
-22 1 -28 0 -14 -2z"/>
<path d="M5750 7070 l-75 -6 88 -2 c52 -1 87 2 87 8 0 6 -6 9 -12 8 -7 -1 -47
-4 -88 -8z"/>
<path d="M4545 7036 c17 -7 41 -16 55 -20 20 -5 19 -3 -5 8 -16 7 -41 16 -55
20 -20 5 -19 3 5 -8z"/>
<path d="M6030 7021 c0 -10 120 -21 135 -13 5 4 -1 9 -15 13 -37 10 -120 10
-120 0z"/>
<path d="M2610 7011 c0 -5 5 -13 10 -16 6 -3 10 -2 10 4 0 5 -4 13 -10 16 -5
3 -10 2 -10 -4z"/>
<path d="M5938 7013 c12 -2 32 -2 45 0 12 2 2 4 -23 4 -25 0 -35 -2 -22 -4z"/>
<path d="M4908 6968 c5 -5 16 -8 23 -6 8 3 3 7 -10 11 -17 4 -21 3 -13 -5z"/>
<path d="M4978 6953 c7 -3 16 -2 19 1 4 3 -2 6 -13 5 -11 0 -14 -3 -6 -6z"/>
<path d="M5028 6943 c6 -2 18 -2 25 0 6 3 1 5 -13 5 -14 0 -19 -2 -12 -5z"/>
<path d="M5783 6933 c9 -2 23 -2 30 0 6 3 -1 5 -18 5 -16 0 -22 -2 -12 -5z"/>
<path d="M5338 6903 c6 -2 18 -2 25 0 6 3 1 5 -13 5 -14 0 -19 -2 -12 -5z"/>
<path d="M5418 6893 c17 -2 47 -2 65 0 17 2 3 4 -33 4 -36 0 -50 -2 -32 -4z"/>
<path d="M2435 6838 c-62 -31 -165 -99 -165 -109 0 -16 28 -10 114 26 47 19
88 35 91 35 4 0 5 -10 3 -22 -2 -17 -19 -29 -66 -49 -54 -22 -61 -28 -47 -39
15 -12 22 -60 8 -60 -3 0 -25 10 -47 23 -40 23 -43 23 -83 8 l-41 -16 31 -46
c45 -65 74 -99 83 -99 5 0 32 10 60 21 50 21 52 23 47 54 -4 28 2 39 49 91
l54 59 -20 67 c-12 37 -23 69 -26 71 -3 3 -23 -4 -45 -15z"/>
<path d="M5135 6820 c19 -8 73 -14 64 -6 -2 2 -22 6 -44 9 -28 5 -34 4 -20 -3z"/>
<path d="M2814 6712 c-14 -9 -34 -47 -34 -63 0 -17 21 3 43 40 17 30 14 39 -9
23z"/>
<path d="M2198 6687 c-9 -7 -13 -18 -10 -24 5 -7 12 -2 19 13 6 13 10 24 10
24 -1 0 -10 -6 -19 -13z"/>
<path d="M3025 6678 c-11 -6 -21 -12 -23 -13 -5 -4 42 -95 48 -95 9 0 30 71
30 99 0 23 -22 27 -55 9z"/>
<path d="M6263 6653 c15 -2 37 -2 50 0 12 2 0 4 -28 4 -27 0 -38 -2 -22 -4z"/>
<path d="M6317 6621 c-54 -18 -52 -31 4 -31 29 0 39 5 44 21 4 11 5 22 3 23
-1 2 -25 -4 -51 -13z"/>
<path d="M2914 6615 c-15 -11 -16 -14 -3 -15 8 0 24 7 35 15 15 11 16 14 3 15
-8 0 -24 -7 -35 -15z"/>
<path d="M6176 6570 c-95 -41 -176 -91 -176 -110 0 -9 -5 -21 -12 -28 -23 -23
2 -25 52 -4 64 27 246 173 214 172 -5 0 -40 -14 -78 -30z"/>
<path d="M2248 6505 c5 -11 12 -27 15 -35 5 -13 6 -13 6 1 1 8 -6 24 -15 35
-15 19 -15 19 -6 -1z"/>
<path d="M6590 6419 c0 -5 5 -7 10 -4 6 3 10 8 10 11 0 2 -4 4 -10 4 -5 0 -10
-5 -10 -11z"/>
<path d="M5578 6413 c6 -2 18 -2 25 0 6 3 1 5 -13 5 -14 0 -19 -2 -12 -5z"/>
<path d="M6337 6153 c-4 -3 -7 -11 -7 -17 0 -6 5 -5 12 2 6 6 9 14 7 17 -3 3
-9 2 -12 -2z"/>
<path d="M591 5754 c-103 -123 -176 -201 -222 -236 -67 -51 -68 -53 -46 -65
13 -6 29 -23 37 -37 7 -14 17 -26 21 -26 18 0 141 147 212 254 72 108 165 281
156 291 -3 2 -73 -79 -158 -181z"/>
<path d="M6615 5930 c-3 -5 -1 -10 4 -10 6 0 11 5 11 10 0 6 -2 10 -4 10 -3 0
-8 -4 -11 -10z"/>
<path d="M5560 5904 c0 -8 5 -12 10 -9 6 4 8 11 5 16 -9 14 -15 11 -15 -7z"/>
<path d="M6300 5880 c0 -5 5 -10 10 -10 6 0 10 5 10 10 0 6 -4 10 -10 10 -5 0
-10 -4 -10 -10z"/>
<path d="M6585 5880 c-3 -5 -1 -10 4 -10 6 0 11 5 11 10 0 6 -2 10 -4 10 -3 0
-8 -4 -11 -10z"/>
<path d="M5210 5718 c0 -3 25 -26 56 -53 31 -26 52 -40 46 -29 -9 17 -102 91
-102 82z"/>
<path d="M6380 5605 c-7 -9 -11 -18 -8 -20 3 -3 11 1 18 10 7 9 11 18 8 20 -3
3 -11 -1 -18 -10z"/>
<path d="M6330 5538 c-12 -22 -12 -22 6 -6 10 10 15 20 12 24 -4 3 -12 -5 -18
-18z"/>
<path d="M6710 5010 c-6 -11 -7 -20 -3 -20 5 0 14 9 21 20 7 11 8 20 2 20 -5
0 -14 -9 -20 -20z"/>
<path d="M6610 4889 c0 -5 5 -7 10 -4 6 3 10 8 10 11 0 2 -4 4 -10 4 -5 0 -10
-5 -10 -11z"/>
<path d="M6564 4846 c-1 -16 3 -23 11 -20 7 3 11 14 8 25 -7 27 -18 24 -19 -5z"/>
<path d="M5880 4711 c0 -5 7 -11 15 -15 8 -3 15 -1 15 3 0 5 -7 11 -15 15 -8
3 -15 1 -15 -3z"/>
<path d="M5554 4116 c-10 -8 -15 -18 -11 -22 4 -4 17 2 30 14 24 25 12 30 -19
8z"/>
<path d="M5495 4076 c-16 -13 -27 -27 -23 -31 10 -11 58 23 58 40 0 19 0 19
-35 -9z"/>
<path d="M5905 4080 c3 -5 8 -10 11 -10 2 0 4 5 4 10 0 6 -5 10 -11 10 -5 0
-7 -4 -4 -10z"/>
<path d="M5843 4036 c-10 -11 -9 -16 5 -21 9 -3 13 -3 9 1 -4 4 -2 13 4 21 15
17 -2 16 -18 -1z"/>
<path d="M5447 4029 c7 -7 15 -10 18 -7 3 3 -2 9 -12 12 -14 6 -15 5 -6 -5z"/>
<path d="M5334 3982 c-172 -119 -272 -202 -273 -226 -1 -16 3 -15 37 9 20 16
51 40 67 55 17 15 46 36 65 45 61 31 190 126 190 140 0 28 -19 23 -86 -23z"/>
<path d="M5805 4010 c-3 -5 -1 -10 4 -10 6 0 11 5 11 10 0 6 -2 10 -4 10 -3 0
-8 -4 -11 -10z"/>
<path d="M5772 3964 c10 -10 20 -15 24 -12 3 4 -5 12 -18 18 -22 12 -22 12 -6
-6z"/>
<path d="M5705 3890 c3 -5 8 -10 11 -10 2 0 4 5 4 10 0 6 -5 10 -11 10 -5 0
-7 -4 -4 -10z"/>
<path d="M5550 3829 c0 -5 5 -7 10 -4 6 3 10 8 10 11 0 2 -4 4 -10 4 -5 0 -10
-5 -10 -11z"/>
<path d="M5510 3800 c-8 -5 -10 -10 -5 -10 6 0 17 5 25 10 8 5 11 10 5 10 -5
0 -17 -5 -25 -10z"/>
<path d="M4986 3697 c3 -10 9 -15 12 -12 3 3 0 11 -7 18 -10 9 -11 8 -5 -6z"/>
<path d="M8350 3660 c0 -5 5 -10 11 -10 5 0 7 5 4 10 -3 6 -8 10 -11 10 -2 0
-4 -4 -4 -10z"/>
<path d="M8990 3631 c0 -10 24 -21 48 -21 13 0 12 3 -4 15 -21 16 -44 19 -44
6z"/>
<path d="M9048 3559 c24 -23 46 -39 49 -36 13 13 -12 50 -43 63 -52 22 -53 17
-6 -27z"/>
<path d="M8238 3447 c-15 -22 -15 -25 0 -44 15 -18 52 -43 65 -43 7 0 5 35 -6
73 -12 43 -34 48 -59 14z"/>
<path d="M4630 3416 c0 -2 7 -6 15 -10 8 -3 15 -1 15 4 0 6 -7 10 -15 10 -8 0
-15 -2 -15 -4z"/>
<path d="M4601 3397 c-25 -25 -7 -36 23 -14 16 12 17 15 4 20 -9 3 -21 0 -27
-6z"/>
<path d="M4543 3345 c-26 -25 -29 -36 -10 -32 6 1 15 10 19 19 5 11 13 15 24
11 11 -4 15 -2 12 7 -7 21 -21 20 -45 -5z"/>
<path d="M5002 3118 c-47 -46 -94 -92 -104 -103 -50 -55 -264 -322 -332 -415
-144 -197 -154 -208 -231 -260 -77 -52 -118 -101 -135 -161 l-10 -34 39 40
c219 227 823 890 794 871 -21 -12 -15 9 15 50 47 65 65 94 57 94 -4 0 -46 -37
-93 -82z"/>
<path d="M4839 3161 c-8 -11 -34 -42 -57 -70 -65 -75 -46 -62 27 19 34 39 58
70 53 70 -5 0 -16 -9 -23 -19z"/>
<path d="M5275 3100 c3 -5 8 -10 11 -10 2 0 4 5 4 10 0 6 -5 10 -11 10 -5 0
-7 -4 -4 -10z"/>
<path d="M4841 2324 c-67 -64 -121 -113 -121 -109 0 3 20 33 45 65 25 32 45
61 45 65 0 4 -17 -6 -37 -23 -21 -16 -78 -56 -128 -89 -122 -82 -181 -137
-298 -278 -58 -70 -97 -110 -93 -95 14 51 -109 -97 -258 -310 -104 -148 -98
-143 69 60 70 85 132 160 138 165 22 23 -17 -39 -64 -101 -27 -36 -48 -68 -46
-70 9 -9 132 114 193 192 64 82 94 111 58 57 -30 -46 -102 -170 -125 -215 -19
-37 -20 -41 -4 -28 25 20 461 544 475 571 7 11 14 18 17 15 11 -11 138 97 200
169 36 41 62 75 60 75 -3 0 -59 -52 -126 -116z"/>
<path d="M4618 2359 c-32 -26 -108 -120 -108 -134 0 -2 11 1 25 7 24 11 143
158 128 158 -5 -1 -25 -14 -45 -31z"/>
<path d="M4595 2235 c-31 -14 -75 -55 -59 -55 6 0 34 16 64 35 55 34 52 45 -5
20z"/>
<path d="M4490 2180 c-8 -5 -12 -12 -9 -15 4 -3 12 1 19 10 14 17 11 19 -10 5z"/>
<path d="M4258 1608 c-170 -207 -221 -272 -331 -422 -81 -111 -166 -260 -154
-272 3 -3 35 44 72 103 41 66 65 96 60 78 -4 -19 -3 -26 3 -20 16 17 491 695
487 695 -2 0 -64 -73 -137 -162z"/>
<path d="M3227 1409 c7 -7 15 -10 18 -7 3 3 -2 9 -12 12 -14 6 -15 5 -6 -5z"/>
<path d="M3470 1245 c0 -2 10 -10 23 -16 20 -11 21 -11 8 4 -13 16 -31 23 -31
12z"/>
<path d="M3680 819 c-22 -29 -66 -95 -97 -148 -131 -222 -154 -259 -204 -326
-71 -95 -164 -295 -138 -295 6 0 7 -4 4 -10 -3 -5 -4 -10 -1 -10 3 0 26 39 52
88 115 210 434 726 435 702 0 -8 4 -4 10 8 9 25 5 42 -11 42 -5 0 -28 -23 -50
-51z"/>
</g>
</svg>
